<svg id="Layer_1" data-name="Layer 1" xmlns="http://www.w3.org/2000/svg" viewBox="0 0 3633.2 2718.08"><defs><style>.cls-1{fill:#fff;}</style></defs><title>MORE Logo</title><polygon class="cls-1" points="1333.2 1552.13 1230.6 910.45 1623.1 1302.94 1788.9 1137.14 894.65 242.89 1056.87 1275.77 23.39 1114.1 917.67 2008.38 1083.47 1842.57 691.02 1450.12 1333.2 1552.13"/><path class="cls-1" d="M2161.69,1921.16c30.78-70.73,36.15-112.39,23.93-185.74-15.25-89.31-52.94-164.56-112-223.64l-23.61-23.6c-96.39-96.4-174.62-114.67-285.25-114.66-116.49.69-230.59,51-321.24,141.64L1156,1802.66l890.34,889.23,165.81-165.81L1792,2105.92l693,147.32L2688.23,2050l-532.15-116Zm-269.62,7.7-68.87,68.87-.56-.56-70.26,70.26L1485.93,1801l110.46-110.46c48.56-48.56,108.49-79.15,156.39-79.83h.43c51.92,1.18,96,19.53,131,54.52C1959.05,1740.08,1962.58,1858.35,1892.07,1928.86Z"/><path class="cls-1" d="M3079.77,598.38,2923.1,755.06l-8,8,6.28,6.28,358,358-199,199-271-271a706.31,706.31,0,0,1-76.35,90,715.1,715.1,0,0,1-88.85,75.27l271,271-199,199L2359,1333.4l-7.09-7.1-9.1,9.1-156.14,156.14,530,530,893.15-893.15Z"/><path class="cls-1" d="M2266.14,1316.72q33.6-.15,66.06-3.39,9.26-.93,18.43-2.12l2.17-.28q7.17-.95,14.28-2c89.93-13.84,172.87-46.07,248.12-96.45a666.35,666.35,0,0,0,73.29-57q14.31-12.78,28.18-26.51c9.64-9.64,18.86-19.46,27.76-29.43a657.06,657.06,0,0,0,56.52-72.84c50.3-75.34,82.39-158.62,96-249.18.71-4.75,1.37-9.54,2-14.33l0-.26q1.17-9.17,2.1-18.42,3.21-32.44,3.36-66.08c.73-175.85-61.87-328-186-452.15C2594.51,102.44,2442.18,39.66,2265.57,39.66s-328.74,62.59-452.19,186.05-186.06,275.6-186.05,452.2c.73,176.57,63.7,328.73,187.17,452.19C1938.33,1253.93,2090.28,1316.72,2266.14,1316.72Zm-402.76-639.3h0c-.77-109.87,38.76-205.49,117.49-284.22,77.58-77.59,173-116.93,283.58-116.93,111.34,0,207.13,39.34,284.71,116.93,78.35,78.35,117.69,174.16,116.92,284.79s-40.3,205.75-117.48,282.94C2470.27,1039.26,2374.86,1079,2265,1079c-110.59,0-206.19-39.53-284.14-117.49-77.2-77.19-116.72-172.76-117.49-284.07Z"/></svg>